# xmcd
# 
# Track frame offsets:
#     150
#     16817
#     37117
#     56475
#     80842
#     100712
#     129000
#     146912
#     166312
#     182580
#     200017
#     232980
#     249257
#     268067
#     284697
#     313127
# 
# Disc length: 4452
# 
# Revision: 11
# Processed by: cddbd v1.5.2PL0 Copyright (c) Steve Scherf et al.
# Submitted via: fre:ac v1.0.17
# 
DISCID=e2116210
DTITLE=Sade - The Best Of Sade
DYEAR=1994
DGENRE=Rock
TTITLE0=Your Love Is King
TTITLE1=Hang On To Your Love
TTITLE2=Smooth Operator
TTITLE3=Jezebel
TTITLE4=The Sweetest Taboo
TTITLE5=Is It A Crime
TTITLE6=Never As Good As The First Time
TTITLE7=Love Is Stronger Than Pride
TTITLE8=Paradise
TTITLE9=Nothing Can Come Between Us
TTITLE10=No Ordinary Love
TTITLE11=Like A Tattoo
TTITLE12=Kiss Of Life
TTITLE13=Please Send Me Someone To Love
TTITLE14=Cherish The Day
TTITLE15=Pearls
EXTD=YEAR: 1994
EXTT0=
EXTT1=
EXTT2=
EXTT3=
EXTT4=
EXTT5=
EXTT6=
EXTT7=
EXTT8=
EXTT9=
EXTT10=
EXTT11=
EXTT12=
EXTT13=
EXTT14=
EXTT15=
PLAYORDER=
